<mxfile host="65bd71144e">
    <diagram id="LGqpC-vrlF5eVb0g_cO1" name="Page-1">
        <mxGraphModel dx="666" dy="538" grid="1" gridSize="10" guides="1" tooltips="1" connect="1" arrows="1" fold="1" page="1" pageScale="1" pageWidth="850" pageHeight="1100" math="0" shadow="0">
            <root>
                <mxCell id="0"/>
                <mxCell id="1" parent="0"/>
                <mxCell id="2" value="" style="whiteSpace=wrap;html=1;aspect=fixed;" vertex="1" parent="1">
                    <mxGeometry x="70" y="60" width="200" height="200" as="geometry"/>
                </mxCell>
                <mxCell id="3" value="Employee View (home)" style="rounded=0;whiteSpace=wrap;html=1;" vertex="1" parent="1">
                    <mxGeometry x="100" y="10" width="120" height="30" as="geometry"/>
                </mxCell>
                <mxCell id="4" value="Welcome to Honey Rae Repair Shop" style="ellipse;whiteSpace=wrap;html=1;" vertex="1" parent="1">
                    <mxGeometry x="110" y="100" width="120" height="80" as="geometry"/>
                </mxCell>
                <mxCell id="5" value="" style="whiteSpace=wrap;html=1;aspect=fixed;" vertex="1" parent="1">
                    <mxGeometry x="70" y="330" width="260" height="260" as="geometry"/>
                </mxCell>
                <mxCell id="6" value="Employee View Employees" style="rounded=0;whiteSpace=wrap;html=1;" vertex="1" parent="1">
                    <mxGeometry x="90" y="290" width="120" height="30" as="geometry"/>
                </mxCell>
                <mxCell id="7" value="Name&lt;div&gt;Email&lt;/div&gt;" style="rounded=1;whiteSpace=wrap;html=1;" vertex="1" parent="1">
                    <mxGeometry x="90" y="350" width="100" height="40" as="geometry"/>
                </mxCell>
                <mxCell id="8" value="Name&lt;div&gt;Email&lt;/div&gt;" style="rounded=1;whiteSpace=wrap;html=1;" vertex="1" parent="1">
                    <mxGeometry x="90" y="400" width="100" height="40" as="geometry"/>
                </mxCell>
                <mxCell id="9" value="Name&lt;div&gt;Email&lt;/div&gt;" style="rounded=1;whiteSpace=wrap;html=1;" vertex="1" parent="1">
                    <mxGeometry x="90" y="450" width="100" height="40" as="geometry"/>
                </mxCell>
                <mxCell id="10" value="Name&lt;div&gt;Email&lt;/div&gt;" style="rounded=1;whiteSpace=wrap;html=1;" vertex="1" parent="1">
                    <mxGeometry x="210" y="350" width="100" height="40" as="geometry"/>
                </mxCell>
                <mxCell id="11" value="Name&lt;div&gt;Email&lt;/div&gt;" style="rounded=1;whiteSpace=wrap;html=1;" vertex="1" parent="1">
                    <mxGeometry x="210" y="400" width="100" height="40" as="geometry"/>
                </mxCell>
                <mxCell id="12" value="Name&lt;div&gt;Email&lt;/div&gt;" style="rounded=1;whiteSpace=wrap;html=1;" vertex="1" parent="1">
                    <mxGeometry x="210" y="450" width="100" height="40" as="geometry"/>
                </mxCell>
                <mxCell id="14" value="S" style="swimlane;whiteSpace=wrap;html=1;align=left;" vertex="1" parent="1">
                    <mxGeometry x="410" y="60" width="470" height="370" as="geometry">
                        <mxRectangle x="360" y="200" width="50" height="40" as="alternateBounds"/>
                    </mxGeometry>
                </mxCell>
                <mxCell id="18" value="Close" style="rounded=1;whiteSpace=wrap;html=1;" vertex="1" parent="14">
                    <mxGeometry x="310" y="142.5" width="60" height="25" as="geometry"/>
                </mxCell>
                <mxCell id="19" value="Ticket #&lt;div&gt;Description&lt;/div&gt;&lt;div&gt;&lt;br&gt;&lt;/div&gt;&lt;div&gt;Assignee&amp;nbsp; &amp;nbsp; &amp;nbsp; Emergency&amp;nbsp;&lt;span style=&quot;white-space: pre;&quot;&gt;&#x9;&lt;/span&gt;&lt;span style=&quot;white-space: pre;&quot;&gt;&#x9;&lt;/span&gt;&lt;span style=&quot;white-space: pre;&quot;&gt;&#x9;&lt;/span&gt;&lt;span style=&quot;white-space: pre;&quot;&gt;&#x9;&lt;/span&gt;&lt;span style=&quot;white-space: pre;&quot;&gt;&#x9;&lt;/span&gt;&lt;/div&gt;" style="rounded=1;whiteSpace=wrap;html=1;align=left;" vertex="1" parent="14">
                    <mxGeometry x="20" y="190" width="400" height="70" as="geometry"/>
                </mxCell>
                <mxCell id="20" value="Tickets&lt;span style=&quot;white-space: pre;&quot;&gt;&#x9;&lt;/span&gt;&lt;span style=&quot;white-space: pre;&quot;&gt;&#x9;&lt;/span&gt;Employees&lt;span style=&quot;white-space: pre;&quot;&gt;&#x9;&lt;/span&gt;Customers&lt;span style=&quot;white-space: pre;&quot;&gt;&#x9;&lt;/span&gt;&lt;span style=&quot;white-space: pre;&quot;&gt;&#x9;&lt;/span&gt;Profiles&lt;span style=&quot;white-space: pre;&quot;&gt;&#x9;&lt;/span&gt;" style="swimlane;whiteSpace=wrap;html=1;align=left;" vertex="1" parent="14">
                    <mxGeometry width="470" height="370" as="geometry">
                        <mxRectangle x="360" y="200" width="50" height="40" as="alternateBounds"/>
                    </mxGeometry>
                </mxCell>
                <mxCell id="22" value="Close" style="rounded=1;whiteSpace=wrap;html=1;" vertex="1" parent="20">
                    <mxGeometry x="310" y="142.5" width="60" height="25" as="geometry"/>
                </mxCell>
                <mxCell id="17" value="Ticket #&lt;div&gt;Description&lt;/div&gt;&lt;div&gt;&lt;br&gt;&lt;/div&gt;&lt;div&gt;Assignee&amp;nbsp; &amp;nbsp; &amp;nbsp; Emergency&amp;nbsp;&lt;span style=&quot;white-space: pre;&quot;&gt;&#x9;&lt;/span&gt;&lt;span style=&quot;white-space: pre;&quot;&gt;&#x9;&lt;/span&gt;&lt;span style=&quot;white-space: pre;&quot;&gt;&#x9;&lt;/span&gt;&lt;span style=&quot;white-space: pre;&quot;&gt;&#x9;&lt;/span&gt;&lt;span style=&quot;white-space: pre;&quot;&gt;&#x9;&lt;/span&gt;&lt;/div&gt;" style="rounded=1;whiteSpace=wrap;html=1;align=left;" vertex="1" parent="20">
                    <mxGeometry x="20" y="110" width="400" height="70" as="geometry"/>
                </mxCell>
                <mxCell id="23" value="Ticket #&lt;div&gt;Description&lt;/div&gt;&lt;div&gt;&lt;br&gt;&lt;/div&gt;&lt;div&gt;Assignee&amp;nbsp; &amp;nbsp; &amp;nbsp; Emergency&amp;nbsp;&lt;span style=&quot;white-space: pre;&quot;&gt;&#x9;&lt;/span&gt;&lt;span style=&quot;white-space: pre;&quot;&gt;&#x9;&lt;/span&gt;&lt;span style=&quot;white-space: pre;&quot;&gt;&#x9;&lt;/span&gt;&lt;span style=&quot;white-space: pre;&quot;&gt;&#x9;&lt;/span&gt;&lt;span style=&quot;white-space: pre;&quot;&gt;&#x9;&lt;/span&gt;&lt;/div&gt;" style="rounded=1;whiteSpace=wrap;html=1;align=left;" vertex="1" parent="20">
                    <mxGeometry x="20" y="270" width="400" height="70" as="geometry"/>
                </mxCell>
                <mxCell id="28" value="Emergency" style="rounded=1;whiteSpace=wrap;html=1;" vertex="1" parent="20">
                    <mxGeometry x="20" y="70" width="90" height="20" as="geometry"/>
                </mxCell>
                <mxCell id="29" value="Show All" style="rounded=1;whiteSpace=wrap;html=1;" vertex="1" parent="20">
                    <mxGeometry x="120" y="70" width="90" height="20" as="geometry"/>
                </mxCell>
                <mxCell id="30" value="Close" style="rounded=1;whiteSpace=wrap;html=1;" vertex="1" parent="20">
                    <mxGeometry x="250" y="150" width="90" height="20" as="geometry"/>
                </mxCell>
                <mxCell id="32" value="or&amp;nbsp;" style="rounded=1;whiteSpace=wrap;html=1;" vertex="1" parent="20">
                    <mxGeometry x="240" y="300" width="170" height="30" as="geometry"/>
                </mxCell>
                <mxCell id="33" value="Claim" style="rounded=1;whiteSpace=wrap;html=1;" vertex="1" parent="20">
                    <mxGeometry x="250" y="305" width="60" height="20" as="geometry"/>
                </mxCell>
                <mxCell id="34" value="Close" style="rounded=1;whiteSpace=wrap;html=1;" vertex="1" parent="20">
                    <mxGeometry x="340" y="305" width="60" height="20" as="geometry"/>
                </mxCell>
                <mxCell id="36" value="Search Tickets" style="rounded=1;whiteSpace=wrap;html=1;" vertex="1" parent="20">
                    <mxGeometry x="310" y="70" width="120" height="30" as="geometry"/>
                </mxCell>
                <mxCell id="31" value="Close" style="rounded=1;whiteSpace=wrap;html=1;" vertex="1" parent="14">
                    <mxGeometry x="250" y="230" width="90" height="25" as="geometry"/>
                </mxCell>
                <mxCell id="16" value="Employee View (tickets)" style="rounded=0;whiteSpace=wrap;html=1;" vertex="1" parent="1">
                    <mxGeometry x="390" y="20" width="120" height="30" as="geometry"/>
                </mxCell>
                <mxCell id="37" value="" style="whiteSpace=wrap;html=1;aspect=fixed;" vertex="1" parent="1">
                    <mxGeometry x="60" y="710" width="270" height="270" as="geometry"/>
                </mxCell>
                <mxCell id="38" value="Employeer View (employee details)" style="rounded=0;whiteSpace=wrap;html=1;" vertex="1" parent="1">
                    <mxGeometry x="80" y="640" width="120" height="40" as="geometry"/>
                </mxCell>
                <mxCell id="39" value="Name&lt;span style=&quot;white-space: pre;&quot;&gt;&#x9;&lt;/span&gt;Email&lt;div&gt;&lt;font color=&quot;#000000&quot;&gt;Specialty&lt;span style=&quot;white-space: pre;&quot;&gt;&#x9;&lt;/span&gt;&lt;span style=&quot;white-space: pre;&quot;&gt;&#x9;&lt;/span&gt;Rate&lt;/font&gt;&lt;/div&gt;&lt;div&gt;&lt;font color=&quot;#000000&quot;&gt;&lt;br&gt;&lt;/font&gt;&lt;div&gt;&lt;div&gt;# of tickets working on&lt;/div&gt;&lt;/div&gt;&lt;/div&gt;" style="rounded=1;whiteSpace=wrap;html=1;" vertex="1" parent="1">
                    <mxGeometry x="100" y="750" width="190" height="70" as="geometry"/>
                </mxCell>
                <mxCell id="40" value="" style="whiteSpace=wrap;html=1;aspect=fixed;" vertex="1" parent="1">
                    <mxGeometry x="400" y="530" width="420" height="420" as="geometry"/>
                </mxCell>
                <mxCell id="41" value="Employee View (customers)" style="rounded=0;whiteSpace=wrap;html=1;" vertex="1" parent="1">
                    <mxGeometry x="420" y="480" width="170" height="40" as="geometry"/>
                </mxCell>
                <mxCell id="42" value="Name&lt;div&gt;Email&lt;/div&gt;" style="rounded=1;whiteSpace=wrap;html=1;" vertex="1" parent="1">
                    <mxGeometry x="437.5" y="590" width="135" height="60" as="geometry"/>
                </mxCell>
                <mxCell id="43" value="Name&lt;div&gt;Email&lt;/div&gt;" style="rounded=1;whiteSpace=wrap;html=1;" vertex="1" parent="1">
                    <mxGeometry x="437.5" y="670" width="135" height="60" as="geometry"/>
                </mxCell>
                <mxCell id="44" value="Name&lt;div&gt;Email&lt;/div&gt;" style="rounded=1;whiteSpace=wrap;html=1;" vertex="1" parent="1">
                    <mxGeometry x="437.5" y="750" width="135" height="60" as="geometry"/>
                </mxCell>
                <mxCell id="45" value="Name&lt;div&gt;Email&lt;/div&gt;" style="rounded=1;whiteSpace=wrap;html=1;" vertex="1" parent="1">
                    <mxGeometry x="640" y="590" width="135" height="60" as="geometry"/>
                </mxCell>
                <mxCell id="46" value="Name&lt;div&gt;Email&lt;/div&gt;" style="rounded=1;whiteSpace=wrap;html=1;" vertex="1" parent="1">
                    <mxGeometry x="640" y="670" width="135" height="60" as="geometry"/>
                </mxCell>
                <mxCell id="47" value="Name&lt;div&gt;Email&lt;/div&gt;" style="rounded=1;whiteSpace=wrap;html=1;" vertex="1" parent="1">
                    <mxGeometry x="640" y="755" width="135" height="60" as="geometry"/>
                </mxCell>
                <mxCell id="48" value="" style="whiteSpace=wrap;html=1;aspect=fixed;" vertex="1" parent="1">
                    <mxGeometry x="400" y="1040" width="240" height="240" as="geometry"/>
                </mxCell>
                <mxCell id="49" value="Employee View (customer details)" style="rounded=0;whiteSpace=wrap;html=1;" vertex="1" parent="1">
                    <mxGeometry x="400" y="980" width="120" height="40" as="geometry"/>
                </mxCell>
                <mxCell id="50" value="Name&lt;div&gt;Email&lt;/div&gt;&lt;div&gt;Adress&lt;/div&gt;&lt;div&gt;Phone #&lt;/div&gt;" style="rounded=1;whiteSpace=wrap;html=1;" vertex="1" parent="1">
                    <mxGeometry x="445" y="1130" width="120" height="60" as="geometry"/>
                </mxCell>
                <mxCell id="51" value="" style="whiteSpace=wrap;html=1;aspect=fixed;" vertex="1" parent="1">
                    <mxGeometry x="60" y="1070" width="255" height="255" as="geometry"/>
                </mxCell>
                <mxCell id="52" value="Employee&amp;nbsp;" style="rounded=0;whiteSpace=wrap;html=1;" vertex="1" parent="1">
                    <mxGeometry x="60" y="1020" width="130" height="35" as="geometry"/>
                </mxCell>
            </root>
        </mxGraphModel>
    </diagram>
</mxfile>